<svg id="aafdfc49-b4b4-4d19-8bdc-870b25d80905" data-name="logo1" xmlns="http://www.w3.org/2000/svg" viewBox="0 0 155.27 208.49"><defs><style>.e4de5ef4-963c-499b-8977-af03624a03e6{fill:#231f20;}</style></defs><path class="e4de5ef4-963c-499b-8977-af03624a03e6" d="M119.82,177.66V143.12a1.21,1.21,0,0,1,1.09-1.23h5.85a1.22,1.22,0,0,1,1.22,1.23v79.29a1.19,1.19,0,0,1-1.22,1.08h-5.85a1.17,1.17,0,0,1-1.09-1.08V188.13a1.1,1.1,0,0,0-1.22-1.08h-5.85a1.07,1.07,0,0,0-1.09,1.08v34.28a1.16,1.16,0,0,1-1.08,1.08h-6a1.17,1.17,0,0,1-1.09-1.08V143.12a1.21,1.21,0,0,1,1.09-1.23h6a1.2,1.2,0,0,1,1.08,1.23v34.54a1.21,1.21,0,0,0,1.09,1.23h5.85A1.22,1.22,0,0,0,119.82,177.66Z" transform="translate(-103.5 -106.01)"/><path class="e4de5ef4-963c-499b-8977-af03624a03e6" d="M153.14,142.85a1,1,0,0,1,1-1h6.26a1,1,0,0,1,1,1v79.69a.93.93,0,0,1-1,1h-6.26a.93.93,0,0,1-1-1v-2.72a16.15,16.15,0,0,1-3.67,3.67H145.8a9,9,0,0,1-9-9V142.85a.93.93,0,0,1,1-1H144a.93.93,0,0,1,.95,1v72.08a.88.88,0,0,0,.82.81h7.34V142.85Z" transform="translate(-103.5 -106.01)"/><path class="e4de5ef4-963c-499b-8977-af03624a03e6" d="M193.4,166.37h-5.85a1.16,1.16,0,0,1-1.09-1.08V150.87a.88.88,0,0,0-.82-.82h-6.52a.88.88,0,0,0-.82.82v64.06a.88.88,0,0,0,.82.81h6.12a1.19,1.19,0,0,0,1.22-1.09V186.77H184a1.19,1.19,0,0,1-1.22-1.08v-6a1.2,1.2,0,0,1,1.22-1.09h9.39a1.2,1.2,0,0,1,1.22,1.09v42.57a1.21,1.21,0,0,1-1.22,1.22h-5.85a1.19,1.19,0,0,1-1.09-1.22v-2.45a16.15,16.15,0,0,1-3.67,3.67h-3.67a9,9,0,0,1-9-9V150.87a9,9,0,0,1,9-9h6.52a9.06,9.06,0,0,1,9,9v14.42A1.19,1.19,0,0,1,193.4,166.37Z" transform="translate(-103.5 -106.01)"/><path class="e4de5ef4-963c-499b-8977-af03624a03e6" d="M227.94,150.87V202a9.06,9.06,0,0,1-9,9h-6.53a9.05,9.05,0,0,1-9-9V150.87a9,9,0,0,1,9-9H219A9,9,0,0,1,227.94,150.87Zm-23.39,64.46h22.16a1.12,1.12,0,0,1,1.23,1.09v5.85a1.22,1.22,0,0,1-1.23,1.22H204.55a1.19,1.19,0,0,1-1.09-1.22v-5.85A1.07,1.07,0,0,1,204.55,215.33Zm15.23-64.46a.88.88,0,0,0-.82-.82h-6.53a.88.88,0,0,0-.81.82V202a.88.88,0,0,0,.81.81H219a.88.88,0,0,0,.82-.81Z" transform="translate(-103.5 -106.01)"/><path class="e4de5ef4-963c-499b-8977-af03624a03e6" d="M128,241.73v14.56a.93.93,0,0,1-1,.95h-6.25a.93.93,0,0,1-1-.95V241.73a.87.87,0,0,0-.81-.81h-6.53a.88.88,0,0,0-.82.81v63.79a.87.87,0,0,0,.82.81H119a.86.86,0,0,0,.81-.81V291a.94.94,0,0,1,1-1H127a.93.93,0,0,1,1,1v14.55a9.05,9.05,0,0,1-9,9h-6.53a9,9,0,0,1-9-9V241.73a8.86,8.86,0,0,1,9-8.84H119A8.94,8.94,0,0,1,128,241.73Z" transform="translate(-103.5 -106.01)"/><path class="e4de5ef4-963c-499b-8977-af03624a03e6" d="M161.3,241.87V293a9.05,9.05,0,0,1-9,9H145.8a9.06,9.06,0,0,1-9-9V241.87a9,9,0,0,1,9-9h6.53A9,9,0,0,1,161.3,241.87Zm-23.39,64.46h22.17a1.11,1.11,0,0,1,1.22,1.09v5.85a1.21,1.21,0,0,1-1.22,1.22H137.91a1.2,1.2,0,0,1-1.09-1.22v-5.85A1.08,1.08,0,0,1,137.91,306.33Zm15.23-64.46a.88.88,0,0,0-.81-.82H145.8a.88.88,0,0,0-.82.82V293a.88.88,0,0,0,.82.81h6.53a.88.88,0,0,0,.81-.81Z" transform="translate(-103.5 -106.01)"/><path class="e4de5ef4-963c-499b-8977-af03624a03e6" d="M194.62,241.87v63.65a9.06,9.06,0,0,1-9,9H171.23a1.16,1.16,0,0,1-1.09-1.08V234.12a1.07,1.07,0,0,1,1.09-1.09h14.41A8.94,8.94,0,0,1,194.62,241.87Zm-8.16,0a.88.88,0,0,0-.82-.82H178.3v65.28h7.34a.87.87,0,0,0,.82-.81Z" transform="translate(-103.5 -106.01)"/><path class="e4de5ef4-963c-499b-8977-af03624a03e6" d="M203.46,313.41V234a1.07,1.07,0,0,1,1.09-1.09h22.16a1.12,1.12,0,0,1,1.23,1.09v5.85a1.12,1.12,0,0,1-1.23,1.09h-14a1.19,1.19,0,0,0-1.09,1.22v26c0,.68,1.09,1.09,1.09,1.09h9.92a1.22,1.22,0,0,1,1.23,1.22v5.85a1.12,1.12,0,0,1-1.23,1.09h-9.92a1.19,1.19,0,0,0-1.09,1.22v26.66a1.16,1.16,0,0,0,1.09,1.08h14a1.21,1.21,0,0,1,1.23,1.09v6a1.2,1.2,0,0,1-1.23,1.08H204.55A1.16,1.16,0,0,1,203.46,313.41Z" transform="translate(-103.5 -106.01)"/><path class="e4de5ef4-963c-499b-8977-af03624a03e6" d="M228.07,138.32l11.65-31.92a.6.6,0,0,1,1.12,0l7.61,19.8L257,148.41a.6.6,0,0,1-.92.69L236.67,134l-.06-.05L223,120.08a.59.59,0,0,1,.41-1l34.78-.59a.6.6,0,0,1,.34,1.1L229,139A.6.6,0,0,1,228.07,138.32Z" transform="translate(-103.5 -106.01)"/></svg>